<mxfile host="app.diagrams.net" modified="2023-04-11T04:17:26.463Z" agent="Mozilla/5.0 (Windows NT 10.0; Win64; x64; rv:109.0) Gecko/20100101 Firefox/112.0" etag="vNy0ShFtk0KI2wymopMp" version="21.1.2" type="github">
  <diagram name="第 1 页" id="lu6B0Hw_VPDY_2OoZVJS">
    <mxGraphModel dx="1434" dy="782" grid="1" gridSize="10" guides="1" tooltips="1" connect="1" arrows="1" fold="1" page="1" pageScale="1" pageWidth="827" pageHeight="1169" math="0" shadow="0">
      <root>
        <mxCell id="0" />
        <mxCell id="1" parent="0" />
        <mxCell id="F5_vEU0M_nDhVuspZ7HD-4" value="Vertical Container" style="swimlane;whiteSpace=wrap;html=1;" vertex="1" parent="1">
          <mxGeometry x="60" y="100" width="200" height="200" as="geometry">
            <mxRectangle x="300" y="80" width="140" height="30" as="alternateBounds" />
          </mxGeometry>
        </mxCell>
      </root>
    </mxGraphModel>
  </diagram>
</mxfile>
